<svg id="Layer_1" data-name="Layer 1" xmlns="http://www.w3.org/2000/svg" viewBox="0 0 1446 473"><defs><style>.cls-1{fill:#fff;}</style></defs><path class="cls-1" d="M80.92,179.4l49.67-2.74c1.65,11,10.7,18.11,26.62,18.11,20.58,0,34.58-11.8,35.4-29.64.55-14-9.33-23-25.52-23-13.17,0-23.6,4.94-31.56,14.82l-47.2-5.76,42-112H340.1L330,85.55H159.41l-11,29.36c11.52-5.21,22.5-7.68,32.38-7.68,43.09,0,69.16,26.34,62.57,68.06-6.31,39.24-42,65.59-86.72,65.59C109.73,240.88,80.37,218.37,80.92,179.4Z"/><path class="cls-1" d="M251.41,166c0-62.85,37.87-129,106.21-129,40.07,0,73.27,24.43,73.27,75.47,0,63.39-37.87,128.44-106.48,128.44C284.07,240.88,251.41,217.27,251.41,166ZM376,118.75c0-19.48-9.33-32.11-24.43-32.11-31.28,0-45.83,48.85-45.83,72.73,0,19.48,8.78,31.83,24.43,31.83C361.74,191.2,376,141,376,118.75Z"/><path class="cls-1" d="M449.34,181.87l50.22-7.13c2.75,14.82,15.92,24.7,32.11,24.7,17,0,28-6.86,28-18.94,0-29.09-90-20-90-80.13,0-39.25,31.83-64.49,81-64.49,40.89,0,75.19,23.87,78.48,55.16L578.33,99c-3.85-12.89-15.1-21.13-30.19-21.13s-24.7,6.59-24.7,17.84c0,32.93,91.66,19.49,91.66,80.68,0,39-33.76,64.22-85.9,64.22C485.84,240.6,454,217,449.34,181.87Z"/><path class="cls-1" d="M666.86,88.29l-94.1.33-9.19-49.45H848.72L838.29,88.29H722.57L690.73,237.86H635Z"/><path class="cls-1" d="M759.7,142.9C767.93,75.12,813.49,37,868.37,37c49.68,0,90.29,30.46,81.24,97.7-8.51,68.06-54.07,106.21-108.68,106.21C790.44,240.88,750.37,211.24,759.7,142.9Zm135.57-15.09C897.74,100.09,884,86.1,864,86.1c-30.46,0-47.75,29.09-50.77,63.12-2.74,28.81,10.7,42.53,31.29,42.53C874.41,191.75,892.25,162.94,895.27,127.81Z"/><path class="cls-1" d="M966,39.17h55.71L989.84,189h62.57L1042,237.86H923.7Z"/><path class="cls-1" d="M1078,39.17h133.37l-10.15,49.12h-77.94l-6.59,29.37h73l-8.5,40.61h-73L1101.61,189h77.94l-10.43,48.85H1035.75Z"/><path class="cls-1" d="M1210.54,39.17h52.69l44.18,110.59,24.16-110.59H1387l-42.26,198.69h-52.42l-44.18-110.6L1224,237.86h-55.71Z"/><polygon class="cls-1" points="708.48 360.65 753.63 360.65 730.92 307.32 708.48 360.65"/><path class="cls-1" d="M534.77,305.08H520v43.56h14.78c20.86,0,32.61-4,32.61-21.78S555.63,305.08,534.77,305.08Z"/><path class="cls-1" d="M723.85,246C324.46,246,.69,288.62.69,341.19s323.77,95.18,723.16,95.18S1447,393.75,1447,341.19,1123.23,246,723.85,246ZM533.58,358.54H520v32.34H509.3V295.31h24.28c29.44,0,44.62,7.13,44.62,31.68S563,358.54,533.58,358.54Zm131.48,32.34H609.88V295.31h10.69V381h44.49Zm101.37,0-9-21.25H704.65l-9,21.25H684.19l41.58-95.57H736.2l41.58,95.57Zm64.28-27.33v27.33H820V363.55l-40-68.24H792.3l33,57.16,33.4-57.16h12.41Zm96,28.65c-19.54,0-34.59-8.71-40.13-23.76l9.9-2.51c4.75,10.69,15.84,16.76,30.1,16.76,15.31,0,25.34-6.73,25.34-17.55,0-26.53-61.38-8.58-61.38-45.28,0-15.31,14-26,33.13-26,18.75,0,32,7.78,37.62,22.44l-9.63,2.37c-4.89-10.16-14.26-15.18-27.86-15.18s-23,6.47-23,16.37c0,27.19,61.51,8.05,61.51,45.41C962.32,381.51,947.8,392.2,926.68,392.2Z"/></svg>