<svg id="Layer_1" data-name="Layer 1" xmlns="http://www.w3.org/2000/svg" viewBox="0 0 319 318"><defs><style>.cls-1,.cls-2{fill:none;}.cls-1{stroke:#fff;stroke-miterlimit:10;stroke-width:6px;}.cls-3{fill:#fff;}</style></defs><circle class="cls-1" cx="159.5" cy="158.5" r="149.5"/><path class="cls-2" d="M40.92,40H278.33V277.41H40.92Z"/><path class="cls-3" d="M243.71,69.68l-1.59.29L189.3,90.45,130,69.68,74.16,88.47a5,5,0,0,0-3.57,4.75V242.79a4.9,4.9,0,0,0,5,4.94l1.58-.29L130,227l59.35,20.77,55.79-18.79a5,5,0,0,0,3.56-4.75V74.62A4.89,4.89,0,0,0,243.71,69.68ZM189.3,228,130,207.08V89.46l59.35,20.87Z"/></svg>